:SAMPLES-PER-SECOND 30
:FULLY-SPECIFIED
:DEGREES
405
root  23.0312 39.8897 -2.03111 0.285227 69.1617 3.74259
RightUpLeg  7.24824 -10.1642 -6.06368
RightLeg  13.162 2.86036 4.37566
RightFoot  -14.6377 -0.191017 -3.26849
RightToes  0.00048216 0.542163 -0.142577
Spine  12.5206 -1.29466 7.87339
Spine1  8.83823 -0.828328 1.33652
HEad  -19.1137 12.5026 -5.73718
LeftShoulder1  9.16077 -14.162 -45.1973
LeftArm  1.9271 4.51134 -27.0441
LeftForeArm  18.1292 -19.1958 -4.77944
LeftHand  -0.25398 0.0180481 5.50724
RightShoulder  4.48218 9.00289 29.8734
RightArm  -10.4828 11.0339 28.08
RightForeArm  -3.10453 18.6596 5.37073
RightHand  -1.42922 3.82174 -18.1948
LeftUpLeg  -14.5547 8.82781 4.68937
LeftLeg  5.42878 5.72173 -1.97676
LeftFoot  3.69476 0.637157 -5.00324
LeftToes  1.06244e-005 4.65856e-005 -8.18505e-006
406
root  24.3145 39.6795 -2.0093 0.586889 67.8237 4.63014
RightUpLeg  9.45012 -10.815 -7.94697
RightLeg  13.8479 5.58389 4.29154
RightFoot  -16.4507 -0.190958 -1.75819
RightToes  0.00048216 0.542163 -0.142577
Spine  12.6166 -1.34272 7.55712
Spine1  9.68948 -0.669191 0.456949
HEad  -19.3916 12.8123 -5.27572
LeftShoulder1  9.23212 -14.31 -45.1702
LeftArm  -1.19373 5.36274 -24.9777
LeftForeArm  21.7151 -13.3364 -6.76788
LeftHand  -0.25398 0.0180481 5.50724
RightShoulder  4.54311 9.27133 29.5928
RightArm  -10.7253 14.7302 28.2562
RightForeArm  -3.39578 19.2764 5.28796
RightHand  -1.46016 3.91086 -18.408
LeftUpLeg  -13.5971 5.04651 5.95233
LeftLeg  0.685025 8.12747 -3.56433
LeftFoot  3.62347 0.756665 -5.92234
LeftToes  1.06244e-005 4.65856e-005 -8.18505e-006
407
root  25.6514 39.419 -2.01186 1.43655 67.1758 6.05233
RightUpLeg  11.1259 -11.2195 -9.669
RightLeg  15.5345 6.87483 3.41902
RightFoot  -18.3737 -0.193488 -1.10718
RightToes  0.00048216 0.542163 -0.142577
Spine  12.6312 -1.54519 6.91235
Spine1  10.4421 -0.719289 -0.248658
HEad  -19.2536 12.8556 -4.50249
LeftShoulder1  9.31682 -14.5098 -45.075
LeftArm  -4.09918 5.73596 -23.4403
LeftForeArm  26.658 -6.92693 -7.95201
LeftHand  -0.25398 0.0180481 5.50724
RightShoulder  4.54326 9.47775 29.0146
RightArm  -10.8731 16.8284 29.0765
RightForeArm  -4.39761 20.8548 5.15872
RightHand  -1.47618 3.76805 -18.8761
LeftUpLeg  -13.9571 5.75128 4.93268
LeftLeg  2.40544 8.39704 -3.38243
LeftFoot  4.27472 0.74714 -5.65021
LeftToes  1.06244e-005 4.65856e-005 -8.18505e-006
408
root  27.053 39.1159 -2.02341 2.46617 66.7441 7.83097
RightUpLeg  12.4271 -9.68093 -10.9381
RightLeg  18.1118 6.04473 2.11548
RightFoot  -20.2917 -0.0959336 0.433273
RightToes  0.00048216 0.542163 -0.142577
Spine  12.8563 -1.58019 5.78647
Spine1  10.9311 -0.765295 -0.444381
HEad  -18.7272 12.5773 -3.52758
LeftShoulder1  9.44197 -14.7198 -45.1567
LeftArm  -3.86226 6.20943 -22.5738
LeftForeArm  29.282 -2.25529 -7.84587
LeftHand  -0.25398 0.0180481 5.50724
RightShoulder  4.50294 9.47574 28.7029
RightArm  -10.4164 17.5571 29.6296
RightForeArm  -5.67881 23.4223 5.31555
RightHand  -1.57149 3.98573 -19.6073
LeftUpLeg  -14.5732 8.88973 2.64821
LeftLeg  7.45049 6.98252 -2.04998
LeftFoot  6.24402 0.624452 -4.29354
LeftToes  1.06244e-005 4.65856e-005 -8.18505e-006
409
root  28.4449 38.8449 -2.03524 3.5604 65.8363 10.0015
RightUpLeg  12.7666 -4.79313 -11.6629
RightLeg  22.4478 3.07407 1.07589
RightFoot  -20.8348 0.286583 5.27347
RightToes  0.00048216 0.542163 -0.142577
Spine  13.8499 -1.23175 3.98214
Spine1  11.1048 -0.611221 -0.234576
HEad  -18.1864 12.2172 -2.61894
LeftShoulder1  9.64099 -14.8677 -45.7593
LeftArm  -3.63155 7.14314 -21.6968
LeftForeArm  31.73 -0.402569 -7.71793
LeftHand  -0.25398 0.0180481 5.50724
RightShoulder  4.5159 9.36648 29.1076
RightArm  -9.67427 17.5911 29.4204
RightForeArm  -5.39521 26.4174 5.95087
RightHand  -1.71213 4.55127 -20.1513
LeftUpLeg  -14.8226 14.181 -0.227468
LeftLeg  12.9543 2.65107 -0.470827
LeftFoot  6.96086 0.387759 -2.6468
LeftToes  1.06244e-005 4.65856e-005 -8.18505e-006
410
root  29.7558 38.7172 -2.05479 5.05285 64.4238 12.5348
RightUpLeg  10.7995 -0.498285 -12.792
RightLeg  30.1297 0.288832 -0.0847805
RightFoot  -17.5349 0.436915 10.5815
RightToes  0.00048216 0.542163 -0.142577
Spine  15.3919 -0.708864 1.77507
Spine1  11.0644 -0.389371 -0.0345364
HEad  -17.8177 12.0432 -1.97969
LeftShoulder1  9.90595 -14.9919 -46.7299
LeftArm  -3.29201 8.43449 -20.6318
LeftForeArm  32.7353 -1.14701 -7.74861
LeftHand  -0.25398 0.0180481 5.50724
RightShoulder  4.62808 9.39899 29.903
RightArm  -8.73104 17.2544 29.2203
RightForeArm  -2.97698 29.1935 6.49775
RightHand  -1.75233 4.74873 -20.2235
LeftUpLeg  -14.3273 18.569 -2.48081
LeftLeg  17.1788 -0.749835 0.00215351
LeftFoot  4.56415 0.155226 -1.30522
LeftToes  1.06244e-005 4.65856e-005 -8.18505e-006
411
root  31.0114 38.7381 -2.08427 6.98094 62.8915 15.0319
RightUpLeg  5.70908 1.47954 -14.4302
RightLeg  40.9737 -2.41855 -2.5789
RightFoot  -9.23925 -0.213043 10.9145
RightToes  0.00048216 0.542163 -0.142577
Spine  16.6676 -0.382955 -0.165971
Spine1  10.9856 -0.334111 -0.0612334
HEad  -17.2839 12.0242 -1.69195
LeftShoulder1  10.1598 -15.1713 -47.484
LeftArm  -2.96112 9.59406 -19.8159
LeftForeArm  31.6497 -2.81267 -7.88412
LeftHand  -0.25398 0.0180481 5.50724
RightShoulder  4.78569 9.61655 30.5198
RightArm  -8.05831 16.5861 29.9619
RightForeArm  0.935341 31.1755 6.78562
RightHand  -1.66497 4.31747 -20.0619
LeftUpLeg  -12.886 21.1 -3.98046
LeftLeg  19.2215 -1.52296 -0.234169
LeftFoot  0.766343 0.109996 -1.11365
LeftToes  1.06244e-005 4.65856e-005 -8.18505e-006
412
root  32.222 38.8026 -2.10424 8.81759 61.3213 17.1081
RightUpLeg  -1.10825 2.03873 -15.9151
RightLeg  51.6587 -3.80691 -5.45905
RightFoot  0.461122 -0.581844 5.72165
RightToes  0.00048216 0.542163 -0.142577
Spine  17.5513 -0.269339 -1.68926
Spine1  11.0572 -0.439319 -0.313374
HEad  -16.1715 11.9057 -1.76931
LeftShoulder1  10.3095 -15.3423 -47.7505
LeftArm  -2.89436 9.99215 -19.6139
LeftForeArm  29.1932 -4.04853 -8.00741
LeftHand  -0.25398 0.0180481 5.50724
RightShoulder  4.9256 9.83932 30.9643
RightArm  -7.2341 15.8666 31.5028
RightForeArm  4.19068 32.0668 6.83478
RightHand  -1.55181 3.7241 -19.901
LeftUpLeg  -10.9499 23.0961 -5.32291
LeftLeg  19.5801 -1.59782 -0.309373
LeftFoot  -2.0258 0.156258 -1.76181
LeftToes  1.06244e-005 4.65856e-005 -8.18505e-006
413
root  33.3813 38.896 -2.10871 9.29866 59.759 17.8803
RightUpLeg  -7.31893 1.73836 -16.4007
RightLeg  58.7868 -3.1185 -5.97542
RightFoot  5.3702 -0.128723 0.962458
RightToes  0.00048216 0.542163 -0.142577
Spine  18.576 -0.26232 -2.51148
Spine1  11.2486 -0.60617 -0.542946
HEad  -14.5073 11.4682 -2.0493
LeftShoulder1  10.3503 -15.3775 -47.8514
LeftArm  -3.09074 9.18681 -19.8313
LeftForeArm  27.0514 -4.78965 -8.08974
LeftHand  -0.25398 0.0180481 5.50724
RightShoulder  5.05754 9.98129 31.5587
RightArm  -5.82475 15.3736 33.0588
RightForeArm  5.47946 31.8021 6.69408
RightHand  -1.48413 3.42468 -19.6764
LeftUpLeg  -8.63078 23.7942 -5.90765
LeftLeg  19.2957 -0.737031 -0.294647
LeftFoot  -3.56511 0.147631 -1.84345
LeftToes  1.06244e-005 4.65856e-005 -8.18505e-006
414
root  34.5113 39.0978 -2.09813 8.21982 58.5374 17.0187
RightUpLeg  -12.0487 0.26253 -15.476
RightLeg  61.2642 -1.94012 -4.3888
RightFoot  4.74291 -0.0369127 0.531445
RightToes  0.00048216 0.542163 -0.142577
Spine  19.8818 -0.482596 -2.31039
Spine1  11.3701 -0.88567 -0.4751
HEad  -12.5067 10.6095 -2.16232
LeftShoulder1  10.3596 -15.306 -48.0795
LeftArm  -3.47801 7.29203 -20.1873
LeftForeArm  26.5748 -5.52086 -8.10639
LeftHand  -0.25398 0.0180481 5.50724
RightShoulder  5.19497 10.1165 32.1986
RightArm  -4.09558 14.8666 34.4099
RightForeArm  5.41419 30.4543 6.357
RightHand  -1.47064 3.48768 -19.373
LeftUpLeg  -5.71476 22.3708 -5.37126
LeftLeg  18.1485 1.86978 -0.510018
LeftFoot  -4.77964 0.0996185 -1.23069
LeftToes  1.06244e-005 4.65856e-005 -8.18505e-006
415
root  35.6138 39.2898 -2.04781 7.11203 57.6242 15.7245
RightUpLeg  -15.9633 -2.57676 -13.7301
RightLeg  59.7826 -1.46788 -3.22377
RightFoot  2.20669 -0.313147 2.75885
RightToes  0.00048216 0.542163 -0.142577
Spine  21.0099 -0.818786 -1.88245
Spine1  11.3339 -1.31242 -0.190954
HEad  -10.1225 9.33205 -1.87486
LeftShoulder1  10.3795 -15.2914 -48.2109
LeftArm  -3.98046 4.94546 -20.8215
LeftForeArm  27.5305 -6.47602 -8.01972
LeftHand  -0.25398 0.0180481 5.50724
RightShoulder  5.29355 10.256 32.5288
RightArm  -2.39629 13.9376 35.8337
RightForeArm  4.89572 28.129 5.81571
RightHand  -1.51098 3.81135 -19.2203
LeftUpLeg  -3.03467 19.1298 -4.59403
LeftLeg  16.7153 6.1297 -1.1224
LeftFoot  -6.35633 0.0853739 -1.11197
LeftToes  1.06244e-005 4.65856e-005 -8.18505e-006
416
root  36.7243 39.4159 -1.9481 6.78273 56.6852 14.92
RightUpLeg  -19.3342 -6.36278 -11.5008
RightLeg  55.1709 -2.36003 -4.02097
RightFoot  0.362432 -0.358995 3.49478
RightToes  0.00048216 0.542163 -0.142577
Spine  21.7091 -1.08762 -1.89044
Spine1  11.2269 -1.78725 0.326178
HEad  -7.31638 7.8014 -1.34275
LeftShoulder1  10.374 -15.392 -47.9252
LeftArm  -4.2907 2.73617 -21.9157
LeftForeArm  28.3657 -7.82133 -7.83177
LeftHand  -0.25398 0.0180481 5.50724
RightShoulder  5.3288 10.3216 32.6008
RightArm  -0.465102 12.6868 37.295
RightForeArm  3.62033 24.96 5.16262
RightHand  -1.60005 4.28011 -19.3764
LeftUpLeg  -0.749536 14.4954 -4.38622
LeftLeg  14.9915 11.7328 -2.02455
LeftFoot  -7.62876 0.10042 -1.67788
LeftToes  1.06244e-005 4.65856e-005 -8.18505e-006
417
root  37.8504 39.4909 -1.81749 6.85556 55.5788 14.6179
RightUpLeg  -21.5604 -10.6475 -8.79657
RightLeg  47.6752 -4.14872 -5.19249
RightFoot  -1.29358 -0.208896 2.2584
RightToes  0.00048216 0.542163 -0.142577
Spine  22.2617 -1.27677 -2.37002
Spine1  11.2961 -2.31191 1.13929
HEad  -4.54691 6.33038 -0.829674
LeftShoulder1  10.3319 -15.5114 -47.4222
LeftArm  -3.79315 0.816349 -23.1039
LeftForeArm  27.5613 -10.0589 -7.48349
LeftHand  -0.25398 0.0180481 5.50724
RightShoulder  5.34981 10.3239 32.7463
RightArm  1.0345 11.5404 38.4392
RightForeArm  2.16198 21.1519 4.94376
RightHand  -1.70242 4.74499 -19.6754
LeftUpLeg  1.43459 9.73615 -5.03114
LeftLeg  13.01 17.5584 -2.79784
LeftFoot  -8.31999 0.0960918 -1.7221
LeftToes  1.06244e-005 4.65856e-005 -8.18505e-006
418
root  38.9903 39.4618 -1.64942 7.32988 54.4666 14.8717
RightUpLeg  -22.5291 -15.877 -5.85982
RightLeg  37.6774 -5.4064 -4.75013
RightFoot  -3.10973 -0.143613 1.7445
RightToes  0.00048216 0.542163 -0.142577
Spine  22.7369 -1.49716 -3.32381
Spine1  11.6866 -2.99721 2.0271
HEad  -2.47033 5.14681 -0.401423
LeftShoulder1  10.3219 -15.5832 -47.1935
LeftArm  -1.74793 -0.880193 -23.7746
LeftForeArm  24.3528 -13.6964 -6.61313
LeftHand  -0.25398 0.0180481 5.50724
RightShoulder  5.40741 10.3572 33.0678
RightArm  -0.672836 10.5701 39.067
RightForeArm  3.63425 16.9466 5.91027
RightHand  -1.78229 5.10136 -19.9006
LeftUpLeg  3.31852 6.15412 -6.48573
LeftLeg  11.6494 22.298 -3.08299
LeftFoot  -9.52851 0.0763152 -1.19469
LeftToes  1.06244e-005 4.65856e-005 -8.18505e-006
419
root  40.1703 39.3156 -1.41333 8.53285 53.3155 15.7159
RightUpLeg  -23.3856 -23.7999 -2.03259
RightLeg  26.2792 -4.88004 -3.29314
RightFoot  -3.66371 -0.271687 3.60988
RightToes  0.00048216 0.542163 -0.142577
Spine  22.8316 -1.75753 -4.5753
Spine1  12.3331 -3.74093 2.79756
HEad  -1.22742 4.25253 -0.0337021
LeftShoulder1  10.3841 -15.6723 -47.2586
LeftArm  0.899904 -2.31575 -23.8407
LeftForeArm  20.0306 -18.3827 -5.05494
LeftHand  -0.25398 0.0180481 5.50724
RightShoulder  5.49358 10.4383 33.4573
RightArm  -4.41806 9.39922 39.3959
RightForeArm  6.92007 12.9167 6.80516
RightHand  -1.83535 5.30185 -20.1058
LeftUpLeg  4.76005 4.11209 -8.43694
LeftLeg  10.9773 25.4454 -3.03236
LeftFoot  -11.5721 0.0641563 -1.49737
LeftToes  1.06244e-005 4.65856e-005 -8.18505e-006
